<mxfile host="app.diagrams.net" modified="2023-05-07T05:52:07.732Z" agent="Mozilla/5.0 (Windows NT 10.0; Win64; x64) AppleWebKit/537.36 (KHTML, like Gecko) Chrome/112.0.0.0 Safari/537.36 Edg/112.0.1722.68" etag="HugxxziDpvE96AVrRt7T" version="21.2.9" type="device">
  <diagram name="Page-1" id="qsLmdBk7THC19AQzSuD2">
    <mxGraphModel dx="713" dy="520" grid="1" gridSize="10" guides="1" tooltips="1" connect="1" arrows="1" fold="1" page="1" pageScale="1" pageWidth="850" pageHeight="1100" math="0" shadow="0">
      <root>
        <mxCell id="0" />
        <mxCell id="1" parent="0" />
        <mxCell id="ZZ9GMioUXH19-GaacR9p-1" value="Expense&lt;br&gt;" style="whiteSpace=wrap;html=1;align=center;" parent="1" vertex="1">
          <mxGeometry x="410" y="190.6" width="100" height="40" as="geometry" />
        </mxCell>
        <mxCell id="MFhrPpEtZRePjLi0Co_u-8" style="edgeStyle=orthogonalEdgeStyle;rounded=0;orthogonalLoop=1;jettySize=auto;html=1;entryX=0.5;entryY=0;entryDx=0;entryDy=0;" edge="1" parent="1" source="ZZ9GMioUXH19-GaacR9p-2" target="MFhrPpEtZRePjLi0Co_u-7">
          <mxGeometry relative="1" as="geometry" />
        </mxCell>
        <mxCell id="ZZ9GMioUXH19-GaacR9p-2" value="Category" style="whiteSpace=wrap;html=1;align=center;" parent="1" vertex="1">
          <mxGeometry x="250" y="300" width="100" height="40" as="geometry" />
        </mxCell>
        <mxCell id="ZZ9GMioUXH19-GaacR9p-3" value="Budget" style="whiteSpace=wrap;html=1;align=center;" parent="1" vertex="1">
          <mxGeometry x="590" y="441.9" width="100" height="40" as="geometry" />
        </mxCell>
        <mxCell id="ZZ9GMioUXH19-GaacR9p-5" value="&lt;span style=&quot;border-bottom: 1px dotted&quot;&gt;ID&lt;/span&gt;" style="ellipse;whiteSpace=wrap;html=1;align=center;" parent="1" vertex="1">
          <mxGeometry x="290" y="130" width="100" height="40" as="geometry" />
        </mxCell>
        <mxCell id="ZZ9GMioUXH19-GaacR9p-6" value="DayOfMonth" style="ellipse;whiteSpace=wrap;html=1;align=center;" parent="1" vertex="1">
          <mxGeometry x="410" y="70" width="100" height="40" as="geometry" />
        </mxCell>
        <mxCell id="ZZ9GMioUXH19-GaacR9p-9" value="&lt;span style=&quot;border-bottom: 1px dotted&quot;&gt;ID&lt;/span&gt;" style="ellipse;whiteSpace=wrap;html=1;align=center;" parent="1" vertex="1">
          <mxGeometry x="339.99999999999994" y="360" width="100" height="40" as="geometry" />
        </mxCell>
        <mxCell id="ZZ9GMioUXH19-GaacR9p-12" value="Month" style="ellipse;whiteSpace=wrap;html=1;align=center;" parent="1" vertex="1">
          <mxGeometry x="650" y="541.9" width="100" height="40" as="geometry" />
        </mxCell>
        <mxCell id="ZZ9GMioUXH19-GaacR9p-17" value="Is For" style="shape=rhombus;perimeter=rhombusPerimeter;whiteSpace=wrap;html=1;align=center;" parent="1" vertex="1">
          <mxGeometry x="580" y="230.60000000000002" width="120" height="125" as="geometry" />
        </mxCell>
        <mxCell id="ZZ9GMioUXH19-GaacR9p-21" value="" style="endArrow=none;html=1;rounded=0;exitX=0.5;exitY=0;exitDx=0;exitDy=0;entryX=0.5;entryY=1;entryDx=0;entryDy=0;" parent="1" source="ZZ9GMioUXH19-GaacR9p-3" target="ZZ9GMioUXH19-GaacR9p-17" edge="1">
          <mxGeometry width="50" height="50" relative="1" as="geometry">
            <mxPoint x="350" y="403.1" as="sourcePoint" />
            <mxPoint x="400" y="353.1" as="targetPoint" />
          </mxGeometry>
        </mxCell>
        <mxCell id="ZZ9GMioUXH19-GaacR9p-23" value="" style="endArrow=none;html=1;rounded=0;exitX=0.75;exitY=0;exitDx=0;exitDy=0;entryX=0;entryY=1;entryDx=0;entryDy=0;" parent="1" source="ZZ9GMioUXH19-GaacR9p-1" target="MFhrPpEtZRePjLi0Co_u-5" edge="1">
          <mxGeometry width="50" height="50" relative="1" as="geometry">
            <mxPoint x="460" y="200" as="sourcePoint" />
            <mxPoint x="534.6446609406726" y="164.14213562373106" as="targetPoint" />
          </mxGeometry>
        </mxCell>
        <mxCell id="ZZ9GMioUXH19-GaacR9p-24" value="" style="endArrow=none;html=1;rounded=0;exitX=0.5;exitY=0;exitDx=0;exitDy=0;" parent="1" source="ZZ9GMioUXH19-GaacR9p-1" edge="1">
          <mxGeometry width="50" height="50" relative="1" as="geometry">
            <mxPoint x="410" y="160" as="sourcePoint" />
            <mxPoint x="460" y="110" as="targetPoint" />
          </mxGeometry>
        </mxCell>
        <mxCell id="ZZ9GMioUXH19-GaacR9p-25" value="" style="endArrow=none;html=1;rounded=0;entryX=1;entryY=1;entryDx=0;entryDy=0;" parent="1" source="ZZ9GMioUXH19-GaacR9p-1" target="ZZ9GMioUXH19-GaacR9p-5" edge="1">
          <mxGeometry width="50" height="50" relative="1" as="geometry">
            <mxPoint x="340" y="200" as="sourcePoint" />
            <mxPoint x="440" y="130" as="targetPoint" />
          </mxGeometry>
        </mxCell>
        <mxCell id="ZZ9GMioUXH19-GaacR9p-26" value="" style="endArrow=none;html=1;rounded=0;entryX=0.25;entryY=1;entryDx=0;entryDy=0;exitX=1;exitY=0;exitDx=0;exitDy=0;" parent="1" source="MFhrPpEtZRePjLi0Co_u-6" target="ZZ9GMioUXH19-GaacR9p-2" edge="1">
          <mxGeometry width="50" height="50" relative="1" as="geometry">
            <mxPoint x="230" y="370" as="sourcePoint" />
            <mxPoint x="300" y="360" as="targetPoint" />
          </mxGeometry>
        </mxCell>
        <mxCell id="ZZ9GMioUXH19-GaacR9p-27" value="" style="endArrow=none;html=1;rounded=0;entryX=0.75;entryY=1;entryDx=0;entryDy=0;exitX=0.5;exitY=0;exitDx=0;exitDy=0;" parent="1" source="ZZ9GMioUXH19-GaacR9p-9" target="ZZ9GMioUXH19-GaacR9p-2" edge="1">
          <mxGeometry width="50" height="50" relative="1" as="geometry">
            <mxPoint x="290" y="410" as="sourcePoint" />
            <mxPoint x="340" y="360" as="targetPoint" />
          </mxGeometry>
        </mxCell>
        <mxCell id="ZZ9GMioUXH19-GaacR9p-28" value="N" style="text;html=1;strokeColor=none;fillColor=none;align=center;verticalAlign=middle;whiteSpace=wrap;rounded=0;" parent="1" vertex="1">
          <mxGeometry x="530" y="240" width="60" height="30" as="geometry" />
        </mxCell>
        <mxCell id="ZZ9GMioUXH19-GaacR9p-29" value="1" style="text;html=1;strokeColor=none;fillColor=none;align=center;verticalAlign=middle;whiteSpace=wrap;rounded=0;" parent="1" vertex="1">
          <mxGeometry x="580" y="370.00000000000006" width="60" height="30" as="geometry" />
        </mxCell>
        <mxCell id="ZZ9GMioUXH19-GaacR9p-30" value="" style="endArrow=none;html=1;rounded=0;exitX=0;exitY=0;exitDx=0;exitDy=0;entryX=1;entryY=0.5;entryDx=0;entryDy=0;shape=link;" parent="1" source="ZZ9GMioUXH19-GaacR9p-17" target="ZZ9GMioUXH19-GaacR9p-1" edge="1">
          <mxGeometry width="50" height="50" relative="1" as="geometry">
            <mxPoint x="389" y="354" as="sourcePoint" />
            <mxPoint x="389" y="300" as="targetPoint" />
          </mxGeometry>
        </mxCell>
        <mxCell id="ZZ9GMioUXH19-GaacR9p-31" value="CatName" style="ellipse;whiteSpace=wrap;html=1;align=center;" parent="1" vertex="1">
          <mxGeometry x="720" y="481.9" width="100" height="40" as="geometry" />
        </mxCell>
        <mxCell id="MFhrPpEtZRePjLi0Co_u-2" value="Amount" style="ellipse;whiteSpace=wrap;html=1;align=center;" vertex="1" parent="1">
          <mxGeometry x="530" y="541.9" width="100" height="40" as="geometry" />
        </mxCell>
        <mxCell id="MFhrPpEtZRePjLi0Co_u-4" value="&lt;span style=&quot;border-bottom: 1px dotted&quot;&gt;ID&lt;/span&gt;" style="ellipse;whiteSpace=wrap;html=1;align=center;" vertex="1" parent="1">
          <mxGeometry x="460" y="481.9" width="100" height="40" as="geometry" />
        </mxCell>
        <mxCell id="MFhrPpEtZRePjLi0Co_u-5" value="Amount" style="ellipse;whiteSpace=wrap;html=1;align=center;" vertex="1" parent="1">
          <mxGeometry x="520" y="130" width="100" height="40" as="geometry" />
        </mxCell>
        <mxCell id="MFhrPpEtZRePjLi0Co_u-6" value="CatName" style="ellipse;whiteSpace=wrap;html=1;align=center;" vertex="1" parent="1">
          <mxGeometry x="160" y="360" width="100" height="40" as="geometry" />
        </mxCell>
        <mxCell id="MFhrPpEtZRePjLi0Co_u-7" value="Amount" style="ellipse;whiteSpace=wrap;html=1;align=center;" vertex="1" parent="1">
          <mxGeometry x="250" y="416.9" width="100" height="40" as="geometry" />
        </mxCell>
        <mxCell id="MFhrPpEtZRePjLi0Co_u-10" value="" style="endArrow=classic;html=1;rounded=0;exitX=0;exitY=0.75;exitDx=0;exitDy=0;entryX=1;entryY=0;entryDx=0;entryDy=0;" edge="1" parent="1" source="ZZ9GMioUXH19-GaacR9p-3" target="MFhrPpEtZRePjLi0Co_u-4">
          <mxGeometry width="50" height="50" relative="1" as="geometry">
            <mxPoint x="430" y="501.9" as="sourcePoint" />
            <mxPoint x="480" y="451.9" as="targetPoint" />
          </mxGeometry>
        </mxCell>
        <mxCell id="MFhrPpEtZRePjLi0Co_u-11" value="" style="endArrow=classic;html=1;rounded=0;exitX=1;exitY=0.75;exitDx=0;exitDy=0;entryX=0;entryY=0;entryDx=0;entryDy=0;" edge="1" parent="1" source="ZZ9GMioUXH19-GaacR9p-3" target="ZZ9GMioUXH19-GaacR9p-31">
          <mxGeometry width="50" height="50" relative="1" as="geometry">
            <mxPoint x="600" y="469.9" as="sourcePoint" />
            <mxPoint x="555" y="497.9" as="targetPoint" />
          </mxGeometry>
        </mxCell>
        <mxCell id="MFhrPpEtZRePjLi0Co_u-12" value="" style="endArrow=classic;html=1;rounded=0;exitX=0.75;exitY=1;exitDx=0;exitDy=0;entryX=0.5;entryY=0;entryDx=0;entryDy=0;" edge="1" parent="1" source="ZZ9GMioUXH19-GaacR9p-3" target="ZZ9GMioUXH19-GaacR9p-12">
          <mxGeometry width="50" height="50" relative="1" as="geometry">
            <mxPoint x="700" y="469.9" as="sourcePoint" />
            <mxPoint x="745" y="497.9" as="targetPoint" />
          </mxGeometry>
        </mxCell>
        <mxCell id="MFhrPpEtZRePjLi0Co_u-13" value="" style="endArrow=classic;html=1;rounded=0;exitX=0.25;exitY=1;exitDx=0;exitDy=0;entryX=0.5;entryY=0;entryDx=0;entryDy=0;" edge="1" parent="1" source="ZZ9GMioUXH19-GaacR9p-3" target="MFhrPpEtZRePjLi0Co_u-2">
          <mxGeometry width="50" height="50" relative="1" as="geometry">
            <mxPoint x="675" y="479.9" as="sourcePoint" />
            <mxPoint x="710" y="551.9" as="targetPoint" />
          </mxGeometry>
        </mxCell>
      </root>
    </mxGraphModel>
  </diagram>
</mxfile>
